<svg width="65" height="60" viewBox="0 0 65 60" fill="none" xmlns="http://www.w3.org/2000/svg">
<path fill-rule="evenodd" clip-rule="evenodd" d="M16.7318 0.0192764L61.3742 4.68146C63.3081 4.88982 64.708 6.62186 64.5127 8.54925L60.3454 48.6531C60.15 51.5768 58.3919 51.9219 55.3185 51.5637L55.273 48.2885L56.8031 48.4513L61.0095 8.18461L16.3672 3.52242L15.7746 9.16783L12.2194 9.33062L12.864 3.15778C13.0659 1.22389 14.7979 -0.182578 16.7318 0.0192764ZM48.195 9.44132L3.35732 11.4989C1.41691 11.5901 -0.0872257 13.231 0.00393431 15.1779L1.8662 55.998C1.95736 57.9384 3.59824 59.4426 5.54516 59.3514L50.3828 57.3003C52.3232 57.2092 53.8274 55.5683 53.7362 53.6214L51.874 12.8012C51.7828 10.8543 50.1419 9.35667 48.195 9.44132ZM5.37586 55.4576L3.5201 15.0151L48.3578 12.9575L50.2136 53.4L5.37586 55.4576ZM45.2649 22.3471C45.3821 25.0233 43.318 27.2828 40.6483 27.4065C37.9786 27.5302 35.7191 25.4661 35.5889 22.7899C35.4717 20.1137 37.5293 17.8542 40.2055 17.7305C42.8817 17.6133 45.1412 19.6709 45.2649 22.3471ZM43.344 34.6015L46.4955 38.0004C47.342 38.912 47.8434 40.0971 47.8955 41.3473L48.3643 51.7265L7.04277 53.6213L6.52837 42.3436C6.46977 41.1129 6.84743 39.8953 7.59625 38.912L17.2852 26.1496C18.3271 24.8148 20.3456 24.8018 21.407 26.1171L33.8113 41.3864L39.5153 34.7773C40.505 33.6313 42.2501 33.5531 43.344 34.6015Z" fill="white"/>
</svg>
