<svg width="21" height="22" viewBox="0 0 21 22" fill="none" xmlns="http://www.w3.org/2000/svg">
<path fill-rule="evenodd" clip-rule="evenodd" d="M20.1923 19.5826C20.6382 19.5826 21 19.9444 21 20.3902C21 20.8361 20.6382 21.1979 20.1923 21.1979H12.3816C11.9358 21.1979 11.5739 20.8361 11.5739 20.3902C11.5739 19.9444 11.9358 19.5826 12.3816 19.5826H20.1923ZM15.2018 1.50588C15.2556 1.54788 17.0573 2.94784 17.0573 2.94784C17.712 3.33768 18.2235 4.03443 18.4174 4.85933C18.6102 5.67562 18.4702 6.51776 18.0211 7.22959C18.0181 7.23433 18.0151 7.23902 18.0047 7.25298L17.9966 7.26376C17.9237 7.35983 17.6068 7.76049 16.0076 9.76416C15.9927 9.79042 15.9759 9.81501 15.9575 9.83891C15.9306 9.87413 15.9012 9.90652 15.8699 9.936C15.7608 10.0733 15.6456 10.2177 15.5245 10.3694L15.279 10.6768C14.7725 11.3111 14.1718 12.0632 13.4591 12.9553L13.0934 13.4131C11.7174 15.1352 9.9553 17.3401 7.69795 20.1642C7.20366 20.7802 6.46275 21.1388 5.66693 21.1485L1.7481 21.198H1.73733C1.36365 21.198 1.03842 20.9417 0.951195 20.5766L0.0692168 16.8387C-0.112779 16.0644 0.0681399 15.2654 0.564589 14.6451L10.709 1.9571C10.7133 1.95279 10.7165 1.94741 10.7208 1.9431C11.8332 0.61313 13.8449 0.417134 15.2018 1.50588ZM9.57792 5.95708L1.82564 15.6542C1.64149 15.8846 1.57364 16.1818 1.64149 16.4672L2.37485 19.5741L5.64754 19.5331C5.95877 19.5299 6.2463 19.391 6.43691 19.1541C7.41848 17.926 8.65215 16.3824 9.92051 14.7952L10.3693 14.2336L10.8188 13.6711C12.0083 12.1825 13.1834 10.7117 14.1667 9.48054L9.57792 5.95708ZM11.9646 2.97369L10.587 4.69495L15.1754 8.21741C16.0586 7.11119 16.6396 6.3826 16.6933 6.31315C16.8699 6.02669 16.9388 5.62178 16.8462 5.23194C16.7514 4.83241 16.5027 4.49319 16.1441 4.27673C16.0676 4.22397 14.253 2.81538 14.197 2.77123C13.5143 2.22417 12.5181 2.31893 11.9646 2.97369Z" fill="white"/>
</svg>
