<svg width="18" height="20" viewBox="0 0 18 20" fill="none" xmlns="http://www.w3.org/2000/svg">
<path fill-rule="evenodd" clip-rule="evenodd" d="M8.67004 0.892853C13.1749 0.892853 16.8392 4.73231 16.8392 9.45251C16.8392 11.6795 16.0236 13.7106 14.6888 15.235L17.3152 17.9811C17.561 18.2387 17.5619 18.6553 17.3161 18.9129C17.1936 19.043 17.0317 19.1071 16.8706 19.1071C16.7104 19.1071 16.5493 19.043 16.426 18.9146L13.7679 16.1373C12.3696 17.3106 10.5967 18.0131 8.67004 18.0131C4.16515 18.0131 0.5 14.1727 0.5 9.45251C0.5 4.73231 4.16515 0.892853 8.67004 0.892853ZM8.67004 2.21135C4.85892 2.21135 1.75835 5.45923 1.75835 9.45251C1.75835 13.4458 4.85892 16.6946 8.67004 16.6946C12.4803 16.6946 15.5809 13.4458 15.5809 9.45251C15.5809 5.45923 12.4803 2.21135 8.67004 2.21135Z" fill="white"/>
</svg>
