<svg width="25" height="24" viewBox="0 0 25 24" fill="none" xmlns="http://www.w3.org/2000/svg">
<path fill-rule="evenodd" clip-rule="evenodd" d="M1.54785 12C1.54785 6.20029 6.24815 1.5 12.0479 1.5C17.8476 1.5 22.5479 6.20029 22.5479 12C22.5479 17.7997 17.8476 22.5 12.0479 22.5C6.24815 22.5 1.54785 17.7997 1.54785 12ZM6.87197 12C6.87197 14.8535 9.19432 17.1759 12.0479 17.1759C14.9014 17.1759 17.2237 14.8597 17.2237 12.0062C17.2237 9.15265 14.9014 6.83029 12.0479 6.83029C9.19432 6.83029 6.87197 9.14647 6.87197 12ZM12.0231 8.68331H12.0478C13.876 8.68331 15.3707 10.1657 15.3707 12.0001C15.3707 13.8345 13.8822 15.323 12.0478 15.323C10.2133 15.323 8.72482 13.8283 8.72482 12.0001C8.72482 11.7407 8.76188 11.4936 8.81746 11.2527C9.05835 11.3268 9.31158 11.3824 9.57717 11.3824C10.9422 11.3824 12.0478 10.2768 12.0478 8.91184C12.0478 8.86274 12.0408 8.81595 12.034 8.77006C12.0297 8.7409 12.0254 8.71211 12.0231 8.68331Z" fill="#333333"/>
</svg>
